<?xml version="1.0" encoding="UTF-8" standalone="no"?>
<svg
   version="1.0"
   width="850pt"
   height="148pt"
   viewBox="0 0 850 148"
   preserveAspectRatio="xMidYMid meet"
   id="svg24"
   xmlns="http://www.w3.org/2000/svg"
   xmlns:svg="http://www.w3.org/2000/svg">
  <defs
     id="defs28" />
  <rect
     style="display:inline;fill:none;stroke:#000000;stroke-width:3.98408;stroke-miterlimit:4;stroke-dasharray:none"
     id="rect886"
     width="846.01593"
     height="144.01593"
     x="1.99204"
     y="1.99204" />
  <g
     aria-label="ELEVENTAL"
     id="text3188"
     style="font-weight:900;font-size:106px;line-height:1.25;font-family:Raleway;-inkscape-font-specification:'Raleway Heavy';letter-spacing:24px;display:inline;stroke-width:0.75">
    <path
       d="m 95.860518,93.979977 v 18.020003 h -53.636 V 36.739977 h 52.682 v 18.02 h -32.012 v 10.6 h 27.348 v 16.748 h -27.348 v 11.872 z"
       id="path829" />
    <path
       d="M 129.50633,111.99998 V 36.739977 h 20.67 v 57.24 h 34.132 v 18.020003 z"
       id="path831" />
    <path
       d="m 269.15224,93.979977 v 18.020003 h -53.636 V 36.739977 h 52.682 v 18.02 h -32.012 v 10.6 h 27.348 v 16.748 h -27.348 v 11.872 z"
       id="path833" />
    <path
       d="m 317.32004,36.739977 14.734,51.41 14.522,-51.41 h 21.73 l -25.97,75.260003 h -20.564 l -26.288,-75.260003 z"
       id="path835" />
    <path
       d="m 451.66594,93.979977 v 18.020003 h -53.636 V 36.739977 h 52.682 v 18.02 h -32.012 v 10.6 h 27.348 v 16.748 h -27.348 v 11.872 z"
       id="path837" />
    <path
       d="m 505.98174,75.005977 v 36.994003 h -20.67 V 36.739977 h 16.112 l 30.21,38.266 v -38.266 h 20.67 v 75.260003 h -16.43 z"
       id="path839" />
    <path
       d="m 647.85369,54.759977 h -21.624 v 57.240003 h -20.67 V 54.759977 h -21.73 v -18.02 h 64.024 z"
       id="path841" />
    <path
       d="m 689.87329,36.739977 h 23.108 l 23.956,75.260003 h -20.988 l -4.558,-14.734003 h -20.034 l -4.452,14.734003 h -21.094 z m 18.232,46.746 -6.678,-26.5 -6.996,26.5 z"
       id="path843" />
    <path
       d="M 767.19132,111.99998 V 36.739977 h 20.67 v 57.24 h 34.132 v 18.020003 z"
       id="path845" />
  </g>
</svg>
