<?xml version="1.0" standalone="no"?>
<!DOCTYPE svg PUBLIC "-//W3C//DTD SVG 20010904//EN"
 "http://www.w3.org/TR/2001/REC-SVG-20010904/DTD/svg10.dtd">
<svg version="1.0" xmlns="http://www.w3.org/2000/svg"
 width="1200.000000pt" height="1200.000000pt" viewBox="0 0 1200.000000 1200.000000"
 preserveAspectRatio="xMidYMid meet">

<g transform="translate(0.000000,1200.000000) scale(0.100000,-0.100000)"
fill="#000000" stroke="none">
<path d="M2863 9185 c-68 -29 -63 112 -63 -1840 l0 -1765 -515 0 c-283 0 -515
-3 -515 -6 0 -3 106 -161 236 -351 129 -190 233 -351 231 -358 -3 -6 -109
-164 -237 -351 l-231 -339 515 -3 516 -2 0 -643 c0 -619 1 -643 20 -674 12
-21 32 -36 57 -43 27 -8 913 -10 3145 -8 l3108 3 32 33 33 32 3 650 2 650 515
2 515 3 -235 345 c-129 189 -235 348 -235 352 0 5 106 164 235 353 129 189
235 346 235 350 0 3 -232 5 -515 5 l-515 0 -2 1773 c-3 1693 -4 1773 -21 1799
-10 14 -32 31 -49 37 -22 8 -946 11 -3132 11 -2620 -1 -3106 -3 -3133 -15z
m467 -315 c0 -60 -2 -110 -4 -110 -3 0 -45 50 -96 110 l-91 110 96 0 95 0 0
-110z m640 -20 c0 -71 -1 -130 -3 -130 -1 0 -61 59 -132 130 l-130 130 133 0
132 0 0 -130z m640 0 c0 -71 -1 -130 -3 -130 -1 0 -61 59 -132 130 l-130 130
133 0 132 0 0 -130z m640 0 c0 -71 -1 -130 -3 -130 -1 0 -61 59 -132 130
l-130 130 133 0 132 0 0 -130z m640 0 c0 -71 -1 -130 -3 -130 -1 0 -61 59
-132 130 l-130 130 133 0 132 0 0 -130z m640 0 c0 -71 -1 -130 -3 -130 -1 0
-61 59 -132 130 l-130 130 133 0 132 0 0 -130z m640 0 c0 -71 -1 -130 -3 -130
-1 0 -61 59 -132 130 l-130 130 133 0 132 0 0 -130z m640 0 c0 -71 -1 -130 -3
-130 -1 0 -61 59 -132 130 l-130 130 133 0 132 0 0 -130z m640 0 c0 -71 -1
-130 -3 -130 -1 0 -61 59 -132 130 l-130 130 133 0 132 0 0 -130z m530 18 l-1
-113 -35 40 c-20 22 -62 73 -95 113 l-60 72 95 0 96 0 0 -112z m-5160 -305 c0
-2 -61 -3 -135 -3 l-135 0 0 137 0 138 135 -135 c74 -74 135 -136 135 -137z
m640 0 c0 -2 -61 -3 -135 -3 l-135 0 0 137 0 138 135 -135 c74 -74 135 -136
135 -137z m592 45 l40 -48 -131 0 -131 0 0 137 0 138 91 -90 c50 -50 109 -111
131 -137z m580 60 l100 -108 -131 0 -131 0 0 137 0 137 31 -30 c17 -16 76 -77
131 -136z m643 -5 l98 -103 -131 0 -132 0 0 137 0 138 33 -35 c19 -19 78 -81
132 -137z m610 30 l128 -133 -131 0 -132 0 0 137 c0 75 1 134 3 132 1 -2 61
-64 132 -136z m765 -130 c0 -2 -61 -3 -135 -3 l-135 0 0 137 0 138 135 -135
c74 -74 135 -136 135 -137z m640 0 c0 -2 -61 -3 -135 -3 l-135 0 0 137 0 138
135 -135 c74 -74 135 -136 135 -137z m-5142 73 l63 -76 -100 0 -101 0 0 118 1
117 37 -41 c20 -23 65 -75 100 -118z m5650 0 l63 -76 -100 0 -101 0 0 118 1
117 37 -41 c20 -23 65 -75 100 -118z m182 -931 l0 -634 -707 -3 c-553 -2 -713
-6 -730 -16 -54 -30 -53 -14 -53 -772 l0 -700 -375 0 -375 0 0 389 0 389 -26
31 c-45 54 -67 49 -516 -120 -222 -83 -422 -159 -445 -169 -69 -30 -73 -46
-73 -300 l0 -220 -585 0 -584 0 -3 710 -3 710 -33 32 -32 33 -715 3 -715 3 0
634 0 635 2985 0 2985 0 0 -635z m-4690 -1490 l0 -635 -640 0 -640 0 0 635 0
635 640 0 640 0 0 -635z m4690 0 l0 -635 -640 0 -640 0 0 635 0 635 640 0 640
0 0 -635z m-2450 -345 l0 -290 -320 0 -320 0 0 173 0 172 313 117 c171 64 315
117 320 118 4 0 7 -130 7 -290z m-1649 -499 c10 -9 33 -72 53 -141 20 -69 54
-186 77 -260 23 -74 52 -168 64 -209 l22 -74 20 54 c38 103 72 204 108 329 48
165 83 270 101 298 13 20 22 22 97 22 89 0 107 -6 109 -36 4 -51 -305 -968
-338 -1005 -14 -16 -31 -19 -99 -19 -88 0 -105 9 -119 60 -16 57 -100 321
-128 400 -16 47 -63 192 -103 324 -83 267 -84 273 -12 278 70 5 131 -3 148
-21z m3807 14 c61 -19 108 -57 151 -124 49 -76 59 -186 54 -580 -2 -216 -7
-329 -14 -338 -18 -20 -182 -18 -200 3 -10 12 -13 56 -14 168 l0 151 -147 3
-148 3 0 -145 c0 -80 -4 -156 -10 -170 -9 -25 -12 -26 -94 -26 -63 0 -88 4
-100 16 -14 13 -15 55 -11 347 5 347 15 450 53 537 35 81 95 134 182 161 47
14 243 10 298 -6z m-5570 -12 c11 -19 4 -173 -9 -187 -4 -5 -96 -8 -204 -7
l-195 2 0 -100 0 -101 194 0 c157 0 196 -3 206 -15 9 -10 9 -37 3 -102 l-8
-88 -202 -3 -203 -2 0 -115 0 -115 205 0 c198 0 205 -1 216 -21 14 -27 8 -164
-8 -180 -12 -12 -578 -14 -608 -2 -13 4 -15 79 -15 513 0 449 2 510 16 524 13
14 55 16 309 16 265 0 295 -2 303 -17z m381 3 c9 -10 12 -126 11 -425 l0 -410
138 -3 137 -3 3 -82 c5 -131 21 -123 -246 -123 -125 0 -233 4 -241 9 -19 12
-11 1012 8 1035 18 22 173 23 190 2z m1049 2 c16 -16 15 -146 -1 -177 l-12
-25 -198 3 -197 3 0 -101 0 -101 203 -2 202 -3 3 -88 c2 -57 -1 -94 -9 -103
-9 -11 -51 -14 -205 -14 l-194 0 0 -115 0 -115 198 0 c141 0 201 -3 210 -12
17 -17 16 -159 -1 -183 -13 -17 -33 -18 -302 -16 -177 2 -296 6 -308 13 -19
10 -20 22 -14 514 4 378 8 508 17 519 11 13 59 15 304 15 214 0 295 -3 304
-12z m1742 -3 c13 -16 11 -177 -3 -191 -4 -4 -97 -6 -207 -5 l-200 3 0 -101 0
-101 203 -2 202 -3 3 -88 c2 -57 -1 -94 -9 -103 -9 -11 -51 -14 -205 -14
l-194 0 0 -115 0 -115 198 0 c141 0 201 -3 210 -12 14 -14 16 -166 3 -187 -7
-11 -61 -13 -302 -12 -182 1 -300 6 -312 13 -20 10 -20 19 -13 516 5 333 11
511 18 519 8 10 77 13 303 13 246 0 295 -2 305 -15z m366 -2 c21 -24 130 -200
178 -288 21 -38 55 -97 76 -130 20 -33 49 -82 64 -108 15 -27 29 -47 31 -45 2
2 6 128 9 281 3 194 8 283 17 293 16 20 172 20 188 0 18 -21 13 -1009 -4
-1033 -11 -14 -27 -17 -91 -14 -43 1 -84 7 -90 12 -7 5 -40 58 -75 117 -35 59
-84 141 -110 182 -25 41 -74 122 -107 179 l-62 104 0 -285 c0 -250 -2 -287
-16 -299 -11 -9 -40 -12 -92 -10 -128 4 -116 -55 -108 530 5 326 11 510 18
518 7 8 37 13 84 13 58 0 77 -4 90 -17z m1361 9 c17 -11 20 -167 3 -187 -10
-12 -35 -15 -111 -15 l-99 0 -2 -262 c-3 -522 -5 -570 -19 -579 -8 -5 -53 -9
-100 -9 -70 0 -88 3 -93 16 -3 9 -6 200 -6 425 l0 409 -105 0 c-93 0 -105 2
-115 19 -14 27 -13 164 2 179 14 14 624 17 645 4z m1253 -7 c10 -12 12 -104 8
-425 l-5 -410 137 0 c117 0 139 -2 144 -16 10 -25 7 -140 -4 -168 l-10 -26
-224 0 c-123 0 -231 3 -240 6 -14 5 -16 60 -16 512 0 456 2 507 17 524 22 24
173 27 193 3z m-6039 -1267 c-7 -158 62 -296 192 -381 76 -50 137 -67 236 -67
135 1 241 52 327 159 63 80 87 147 90 256 l2 90 106 3 106 3 0 -366 0 -365
-637 2 -638 3 -3 350 c-1 192 0 356 3 363 3 9 31 12 112 10 l107 -3 -3 -57z
m619 46 c8 -8 13 -40 13 -73 0 -149 -148 -250 -288 -196 -99 37 -161 166 -125
259 l10 26 189 0 c158 0 191 -2 201 -16z m4071 -54 c-5 -154 65 -289 192 -373
81 -53 143 -69 250 -65 75 3 103 8 151 31 163 76 262 234 254 407 l-3 65 108
3 107 3 0 -366 0 -365 -637 2 -638 3 -3 350 c-1 192 0 356 3 363 3 9 31 12
112 10 l107 -3 -3 -65z m619 54 c8 -8 13 -40 13 -73 0 -150 -147 -250 -288
-196 -99 37 -161 166 -125 259 l10 26 189 0 c158 0 191 -2 201 -16z m-1050
-659 l0 -475 -1490 0 -1490 0 0 475 0 475 1490 0 1490 0 0 -475z m-3200 -370
l0 -105 -640 0 -640 0 0 98 c0 54 3 102 7 105 3 4 291 7 640 7 l633 0 0 -105z
m4690 0 l0 -105 -640 0 -640 0 0 98 c0 54 3 102 7 105 3 4 291 7 640 7 l633 0
0 -105z"/>
<path d="M7208 8101 l-33 -29 -3 -252 c-3 -216 -5 -251 -18 -246 -38 14 -150
28 -187 22 -233 -35 -374 -220 -312 -408 25 -74 117 -165 200 -197 81 -32 192
-38 267 -17 68 20 167 82 197 124 60 85 61 90 61 435 0 174 2 317 5 317 3 0
60 -27 128 -61 84 -42 138 -76 172 -110 l51 -49 74 75 74 75 -59 61 c-54 55
-83 72 -288 175 -255 127 -276 133 -329 85z m-98 -742 c45 -28 59 -47 60 -81
0 -68 -118 -123 -210 -98 -48 13 -110 67 -110 97 0 26 27 61 64 84 45 27 149
26 196 -2z"/>
<path d="M5303 7579 c-21 -13 -36 -34 -43 -57 -5 -20 -10 -138 -10 -261 l0
-223 -27 8 c-16 5 -77 9 -138 9 -109 0 -111 0 -183 -39 -106 -57 -166 -139
-179 -244 -14 -117 71 -249 199 -308 57 -26 73 -29 168 -29 86 0 115 4 162 23
73 30 149 98 182 164 l26 52 0 323 c0 178 2 323 5 323 3 0 60 -27 128 -61 84
-42 138 -76 172 -110 l51 -49 74 75 74 75 -54 56 c-48 49 -85 71 -292 175
-131 65 -248 119 -260 119 -13 0 -38 -10 -55 -21z m-113 -750 c46 -28 59 -48
60 -85 0 -72 -118 -123 -220 -94 -113 32 -128 134 -27 184 48 23 144 21 187
-5z"/>
<path d="M6110 6745 l0 -105 105 0 105 0 0 105 0 105 -105 0 -105 0 0 -105z"/>
<path d="M6960 6535 l0 -105 105 0 105 0 0 105 0 105 -105 0 -105 0 0 -105z"/>
<path d="M5250 6215 l0 -105 110 0 110 0 0 105 0 105 -110 0 -110 0 0 -105z"/>
<path d="M3571 6629 c-111 -22 -229 -105 -286 -202 -69 -119 -71 -288 -4 -419
32 -63 123 -146 198 -181 134 -63 305 -45 423 44 97 72 151 161 170 275 48
289 -212 540 -501 483z m133 -210 c111 -31 182 -144 157 -252 -21 -90 -116
-167 -206 -167 -65 0 -144 45 -179 103 -42 69 -46 132 -12 201 47 95 144 142
240 115z"/>
<path d="M8261 6629 c-236 -46 -387 -288 -326 -522 22 -85 51 -135 113 -196
150 -146 381 -163 544 -40 97 72 151 161 170 275 48 289 -212 540 -501 483z
m133 -210 c111 -31 182 -144 157 -252 -21 -90 -116 -167 -206 -167 -65 0 -144
45 -179 103 -42 69 -46 132 -12 201 47 95 144 142 240 115z"/>
<path d="M8453 5185 c-44 -19 -63 -63 -74 -169 -15 -153 -33 -136 146 -136
l154 0 -5 88 c-10 151 -33 203 -102 222 -49 13 -80 12 -119 -5z"/>
</g>
</svg>
